<?xml version="1.0" encoding="UTF-8"?>
<svg id="Layer_2" data-name="Layer 2" xmlns="http://www.w3.org/2000/svg" viewBox="0 0 197.29 43.57">
  <defs>
    <style>
      .cls-1 {
        fill: #fdf0d5;
        stroke-width: 0px;
      }
    </style>
  </defs>
  <g id="Layer_1-2" data-name="Layer 1">
    <g id="y2k_Asset_by_Annorastd-19" data-name="y2k Asset by Annorastd-19">
      <path class="cls-1" d="M176.82,21.74c-2.78-.11-20.7-.43-22.82-.99-8.69-2.29-12.34-8.55-12.34-20.75,0,15.8-5.66,21.64-21.22,21.78-15.56-.14-21.22-5.98-21.22-21.78,0,15.99-5.79,21.79-21.79,21.79,15.99,0,21.79,5.79,21.79,21.79,0-15.8,5.66-21.64,21.22-21.78,15.56.14,21.22,5.98,21.22,21.78,0-12.25,3.68-18.52,12.46-20.78,2.09-.54,19.96-.85,22.69-.96.78-.03,19.65-.05,20.48-.05-.82,0-19.7-.02-20.47-.05Z"/>
      <path class="cls-1" d="M55.63,0c0,12.19-3.65,18.46-12.34,20.75-2.12.56-20.04.88-22.82.99-.77.03-19.64.05-20.47.05.83,0,19.71.02,20.48.05,2.72.11,20.6.42,22.69.96,8.78,2.26,12.46,8.53,12.46,20.78,0-15.99,5.79-21.79,21.79-21.79-15.99,0-21.79-5.79-21.79-21.79Z"/>
    </g>
  </g>
</svg>